<?xml version="1.0" standalone="no"?><svg xmlns="http://www.w3.org/2000/svg" viewBox="0 0 1440 320"><path fill="0000" fill-opacity="1" d="M0,96L0,64L68.6,64L68.6,288L137.1,288L137.1,160L205.7,160L205.7,96L274.3,96L274.3,256L342.9,256L342.9,96L411.4,96L411.4,256L480,256L480,192L548.6,192L548.6,0L617.1,0L617.1,32L685.7,32L685.7,128L754.3,128L754.3,32L822.9,32L822.9,192L891.4,192L891.4,288L960,288L960,32L1028.6,32L1028.6,64L1097.1,64L1097.1,224L1165.7,224L1165.7,320L1234.3,320L1234.3,288L1302.9,288L1302.9,64L1371.4,64L1371.4,224L1440,224L1440,320L1371.4,320L1371.4,320L1302.9,320L1302.9,320L1234.3,320L1234.3,320L1165.7,320L1165.7,320L1097.1,320L1097.1,320L1028.6,320L1028.6,320L960,320L960,320L891.4,320L891.4,320L822.9,320L822.9,320L754.3,320L754.3,320L685.7,320L685.7,320L617.1,320L617.1,320L548.6,320L548.6,320L480,320L480,320L411.4,320L411.4,320L342.9,320L342.9,320L274.3,320L274.3,320L205.7,320L205.7,320L137.1,320L137.1,320L68.6,320L68.6,320L0,320L0,320Z"></path></svg>